# Blender v3.0.0 OBJ File: 'KüchenAssets.blend'
# www.blender.org
mtllib Kraftsteckdose.mtl
o Kraftsteckdose_Cylinder
v 70.000000 -4.727442 5.454557
v 65.409569 7.234242 5.454557
v 69.807854 -4.727442 7.405460
v 65.305626 7.234242 6.509912
v 69.238792 -4.727442 9.281391
v 64.997787 7.234242 7.524710
v 68.314697 -4.727442 11.010258
v 64.497894 7.234242 8.459953
v 67.071068 -4.727442 12.525625
v 63.825142 7.234242 9.279701
v 65.555702 -4.727442 13.769254
v 63.005394 7.234242 9.952451
v 63.826836 -4.727442 14.693352
v 62.070152 7.234242 10.452349
v 61.950905 -4.727442 15.262411
v 61.055355 7.234242 10.760184
v 60.000000 -4.727442 15.454557
v 59.999996 7.234242 10.864128
v 58.049099 -4.727442 15.262411
v 58.944645 7.234242 10.760184
v 56.173164 -4.727442 14.693352
v 57.929844 7.234242 10.452349
v 54.444298 -4.727442 13.769253
v 56.994602 7.234242 9.952451
v 52.928932 -4.727442 12.525625
v 56.174854 7.234242 9.279701
v 51.685307 -4.727442 11.010261
v 55.502106 7.234242 8.459954
v 50.761204 -4.727442 9.281393
v 55.002205 7.234242 7.524711
v 50.192146 -4.727442 7.405461
v 54.694370 7.234242 6.509912
v 50.000000 -4.727442 5.454557
v 54.590427 7.234242 5.454557
v 50.000000 -4.727442 -2.268460
v 54.590427 7.234242 -2.268460
v 70.000000 -4.727442 -2.268460
v 65.409569 7.234242 -2.268460
vt 0.750000 0.500000
vt 0.750000 1.000000
vt 0.718750 1.000000
vt 0.718750 0.500000
vt 0.687500 1.000000
vt 0.687500 0.500000
vt 0.656250 1.000000
vt 0.656250 0.500000
vt 0.625000 1.000000
vt 0.625000 0.500000
vt 0.593750 1.000000
vt 0.593750 0.500000
vt 0.562500 1.000000
vt 0.562500 0.500000
vt 0.531250 1.000000
vt 0.531250 0.500000
vt 0.500000 1.000000
vt 0.500000 0.500000
vt 0.468750 1.000000
vt 0.468750 0.500000
vt 0.437500 1.000000
vt 0.437500 0.500000
vt 0.406250 1.000000
vt 0.406250 0.500000
vt 0.375000 1.000000
vt 0.375000 0.500000
vt 0.343750 1.000000
vt 0.343750 0.500000
vt 0.312500 1.000000
vt 0.312500 0.500000
vt 0.281250 1.000000
vt 0.281250 0.500000
vt 0.250000 1.000000
vt 0.250000 0.500000
vt 0.000000 0.000000
vt 0.000000 0.000000
vt 0.000000 0.000000
vt 0.750000 0.500000
vt 0.750000 1.000000
vt 0.000000 0.000000
vt 0.000000 0.000000
vt 0.250000 1.000000
vt 0.250000 0.500000
vt 0.000000 0.000000
vt 0.000000 0.000000
vt 0.000000 0.000000
vn 0.9327 0.3579 0.0453
vn 0.9326 0.3579 0.0463
vn 0.9157 0.3583 0.1821
vn 0.8625 0.3583 0.3573
vn 0.7763 0.3583 0.5187
vn 0.6602 0.3583 0.6602
vn 0.5187 0.3583 0.7763
vn 0.3573 0.3583 0.8625
vn 0.1821 0.3583 0.9157
vn -0.0000 0.3583 0.9336
vn -0.1821 0.3583 0.9157
vn -0.3573 0.3583 0.8625
vn -0.5187 0.3583 0.7763
vn -0.6602 0.3583 0.6602
vn -0.7763 0.3583 0.5187
vn -0.8625 0.3583 0.3573
vn -0.9157 0.3583 0.1821
vn -0.9326 0.3579 0.0463
vn -0.9327 0.3579 0.0453
vn 0.0000 -1.0000 -0.0000
vn 0.0000 1.0000 0.0000
vn 0.9336 0.3583 0.0000
vn -0.9336 0.3583 0.0000
vn 0.0000 -0.0000 -1.0000
usemtl Kraftsteckdose
s 1
f 1/1/1 2/2/2 4/3/3 3/4/3
f 3/4/3 4/3/3 6/5/4 5/6/4
f 5/6/4 6/5/4 8/7/5 7/8/5
f 7/8/5 8/7/5 10/9/6 9/10/6
f 9/10/6 10/9/6 12/11/7 11/12/7
f 11/12/7 12/11/7 14/13/8 13/14/8
f 13/14/8 14/13/8 16/15/9 15/16/9
f 15/16/9 16/15/9 18/17/10 17/18/10
f 17/18/10 18/17/10 20/19/11 19/20/11
f 19/20/11 20/19/11 22/21/12 21/22/12
f 21/22/12 22/21/12 24/23/13 23/24/13
f 23/24/13 24/23/13 26/25/14 25/26/14
f 25/26/14 26/25/14 28/27/15 27/28/15
f 27/28/15 28/27/15 30/29/16 29/30/16
f 29/30/16 30/29/16 32/31/17 31/32/17
f 31/32/17 32/31/17 34/33/18 33/34/19
f 1/35/20 3/4/20 5/6/20 7/8/20 9/10/20 11/12/20 13/14/20 15/16/20 17/18/20 19/20/20 21/22/20 23/24/20 25/26/20 27/28/20 29/30/20 31/32/20 33/36/20
f 4/3/21 2/37/21 34/33/21 32/31/21 30/29/21 28/27/21 26/25/21 24/23/21 22/21/21 20/19/21 18/17/21 16/15/21 14/13/21 12/11/21 10/9/21 8/7/21 6/5/21
f 2/2/2 1/1/1 37/38/22 38/39/22
f 1/35/20 33/36/20 35/40/20 37/41/20
f 33/34/19 34/33/18 36/42/23 35/43/23
f 37/38/24 35/43/24 36/42/24 38/39/24
f 34/44/21 2/37/21 38/45/21 36/46/21
