# Blender v3.0.0 OBJ File: 'KüchenAssets.blend'
# www.blender.org
mtllib Tisch120.mtl
o Edelstahltisch120_Plane.011
v -388.824707 84.999916 139.999969
v -388.824707 82.171028 139.999969
v -386.008606 82.171028 138.122559
v -386.008606 79.056068 138.122559
v -386.008606 22.887568 138.122559
v -386.008606 19.511143 138.122559
v -381.099335 0.098582 133.219925
v -381.099335 81.899208 133.219925
v -381.099335 0.098582 138.279022
v -381.099335 81.899208 138.279022
v -386.158447 0.098582 133.219925
v -386.158447 81.899208 133.219925
v -386.158447 0.098582 138.279022
v -386.158447 81.899208 138.279022
v -388.824707 84.999916 60.000038
v -388.824707 82.171028 60.000038
v -386.008606 82.171028 61.877438
v -386.008606 79.056068 61.877438
v -386.008606 22.887568 61.877438
v -386.008606 19.511143 61.877438
v -381.099335 0.098582 66.780075
v -381.099335 81.899208 66.780075
v -381.099335 0.098582 61.720985
v -381.099335 81.899208 61.720985
v -386.158447 0.098582 66.780075
v -386.158447 81.899208 66.780075
v -386.158447 0.098582 61.720985
v -386.158447 81.899208 61.720985
v -268.824768 84.999916 139.999969
v -268.824768 82.171028 139.999969
v -271.640869 82.171028 138.122559
v -271.640869 79.056068 138.122559
v -271.640869 22.887568 138.122559
v -271.640869 19.511143 138.122559
v -276.550140 0.098582 133.219925
v -276.550140 81.899208 133.219925
v -276.550140 0.098582 138.279022
v -276.550140 81.899208 138.279022
v -271.491028 0.098582 133.219925
v -271.491028 81.899208 133.219925
v -271.491028 0.098582 138.279022
v -271.491028 81.899208 138.279022
v -268.824768 84.999916 60.000038
v -268.824768 82.171028 60.000038
v -271.640869 82.171028 61.877438
v -271.640869 79.056068 61.877438
v -271.640869 22.887568 61.877438
v -271.640869 19.511143 61.877438
v -276.550140 0.098582 66.780075
v -276.550140 81.899208 66.780075
v -276.550140 0.098582 61.720985
v -276.550140 81.899208 61.720985
v -271.491028 0.098582 66.780075
v -271.491028 81.899208 66.780075
v -271.491028 0.098582 61.720985
v -271.491028 81.899208 61.720985
vt 1.000000 0.833333
vt 0.000000 0.833333
vt 0.000000 0.166667
vt 1.000000 0.166667
vt 0.817688 0.804224
vt 0.817688 0.830182
vt 0.182312 0.830182
vt 0.182312 0.804224
vt 0.976533 0.817688
vt 0.976533 0.182312
vt 1.000000 0.166667
vt 1.000000 0.833333
vt 0.000000 0.853756
vt 1.000000 0.853756
vt 1.000000 0.830182
vt 0.000000 0.830182
vt 0.023467 0.336153
vt 0.976533 0.336153
vt 0.976533 0.308016
vt 0.023467 0.308016
vt 0.817688 0.336153
vt 0.817688 0.308016
vt 0.182312 0.308016
vt 0.182312 0.336153
vt 0.159164 0.210248
vt 0.840836 0.210248
vt 0.840836 0.168088
vt 0.159164 0.168088
vt 0.159164 0.051458
vt 0.840836 0.051458
vt 0.840836 0.009299
vt 0.159164 0.009299
vt 0.159164 0.168088
vt 0.840836 0.168088
vt 0.840836 0.210248
vt 0.159164 0.210248
vt 0.159164 0.009299
vt 0.840836 0.009299
vt 0.840836 0.051458
vt 0.159164 0.051458
vt 0.935622 0.818992
vt 0.977781 0.818992
vt 0.977781 0.776833
vt 0.935622 0.776833
vt 0.977781 0.818992
vt 0.935622 0.818992
vt 0.935622 0.776833
vt 0.977781 0.776833
vt 0.023467 0.817688
vt 0.023467 0.182312
vt 0.976533 0.182312
vt 0.976533 0.817688
vt 0.833333 0.853756
vt 0.833333 0.830182
vt 0.166667 0.830182
vt 0.166667 0.853756
vt 0.023467 0.830182
vt 0.976533 0.830182
vt 0.976533 0.804224
vt 0.023467 0.804224
vt 0.000000 0.833333
vt 0.023467 0.817688
vt 0.817688 0.308016
vt 0.817688 0.336153
vt 0.182312 0.336153
vt 0.182312 0.308016
vt 0.023467 0.336153
vt 0.023467 0.308016
vt 0.976533 0.308016
vt 0.976533 0.336153
vt 0.159164 0.763913
vt 0.159164 0.806072
vt 0.840836 0.806072
vt 0.840836 0.763913
vt 0.159164 0.051458
vt 0.159164 0.009299
vt 0.840836 0.009299
vt 0.840836 0.051458
vt 0.159164 0.806072
vt 0.159164 0.763913
vt 0.840836 0.763913
vt 0.840836 0.806072
vt 0.159164 0.009299
vt 0.159164 0.051458
vt 0.840836 0.051458
vt 0.840836 0.009299
vt 0.935622 0.181008
vt 0.935622 0.223167
vt 0.977781 0.223167
vt 0.977781 0.181008
vt 0.977781 0.181008
vt 0.977781 0.223167
vt 0.935622 0.223167
vt 0.935622 0.181008
vt 0.000000 0.166667
vt 0.023467 0.182312
vt 0.833333 0.830182
vt 0.833333 0.853756
vt 0.166667 0.853756
vt 0.166667 0.830182
vt 0.023467 0.830182
vt 0.023467 0.804224
vt 0.976533 0.804224
vt 0.976533 0.830182
vt 0.976533 0.817688
vt 0.976533 0.182312
vt 0.023467 0.182312
vt 0.023467 0.817688
vt 0.817688 0.830182
vt 0.817688 0.804224
vt 0.182312 0.804224
vt 0.182312 0.830182
vt 0.159164 0.210248
vt 0.159164 0.168088
vt 0.840836 0.168088
vt 0.840836 0.210248
vt 0.159164 0.922702
vt 0.159164 0.964861
vt 0.840836 0.964861
vt 0.840836 0.922702
vt 0.159164 0.168088
vt 0.159164 0.210248
vt 0.840836 0.210248
vt 0.840836 0.168088
vt 0.159164 0.964861
vt 0.159164 0.922702
vt 0.840836 0.922702
vt 0.840836 0.964861
vt 0.064378 0.818992
vt 0.064378 0.776833
vt 0.022219 0.776833
vt 0.022219 0.818992
vt 0.022219 0.818992
vt 0.022219 0.776833
vt 0.064378 0.776833
vt 0.064378 0.818992
vt 0.159164 0.763913
vt 0.840836 0.763913
vt 0.840836 0.806072
vt 0.159164 0.806072
vt 0.159164 0.922702
vt 0.840836 0.922702
vt 0.840836 0.964861
vt 0.159164 0.964861
vt 0.159164 0.806072
vt 0.840836 0.806072
vt 0.840836 0.763913
vt 0.159164 0.763913
vt 0.159164 0.964861
vt 0.840836 0.964861
vt 0.840836 0.922702
vt 0.159164 0.922702
vt 0.064378 0.181008
vt 0.022219 0.181008
vt 0.022219 0.223167
vt 0.064378 0.223167
vt 0.022219 0.181008
vt 0.064378 0.181008
vt 0.064378 0.223167
vt 0.022219 0.223167
vt 0.000000 0.853756
vt 0.000000 0.830182
vt 1.000000 0.830182
vt 1.000000 0.853756
vn 0.0000 1.0000 0.0000
vn -1.0000 0.0000 0.0000
vn 0.0000 0.0000 1.0000
vn 1.0000 0.0000 0.0000
vn 0.0000 0.0000 -1.0000
vn 0.0000 -1.0000 0.0000
usemtl StainlessSteel.008
s off
f 1/1/1 29/2/1 43/3/1 15/4/1
f 4/5/2 3/6/2 17/7/2 18/8/2
f 3/9/1 17/10/1 16/11/1 2/12/1
f 29/13/3 1/14/3 2/15/3 30/16/3
f 33/17/3 5/18/3 6/19/3 34/20/3
f 33/21/4 34/22/4 48/23/4 47/24/4
f 7/25/4 8/26/4 10/27/4 9/28/4
f 9/29/3 10/30/3 14/31/3 13/32/3
f 13/33/2 14/34/2 12/35/2 11/36/2
f 11/37/5 12/38/5 8/39/5 7/40/5
f 9/41/6 13/42/6 11/43/6 7/44/6
f 14/45/1 10/46/1 8/47/1 12/48/1
f 33/49/1 47/50/1 19/51/1 5/52/1
f 29/53/4 30/54/4 44/55/4 43/56/4
f 31/57/3 3/58/3 4/59/3 32/60/3
f 30/61/1 31/62/1 3/9/1 2/12/1
f 6/63/2 5/64/2 19/65/2 20/66/2
f 47/67/5 48/68/5 20/69/5 19/70/5
f 21/71/4 23/72/4 24/73/4 22/74/4
f 23/75/5 27/76/5 28/77/5 24/78/5
f 27/79/2 25/80/2 26/81/2 28/82/2
f 25/83/3 21/84/3 22/85/3 26/86/3
f 23/87/6 21/88/6 25/89/6 27/90/6
f 28/91/1 26/92/1 22/93/1 24/94/1
f 44/95/1 16/11/1 17/10/1 45/96/1
f 2/97/2 1/98/2 15/99/2 16/100/2
f 45/101/5 46/102/5 18/103/5 17/104/5
f 30/61/1 44/95/1 45/96/1 31/62/1
f 6/105/6 20/106/6 48/107/6 34/108/6
f 31/109/4 32/110/4 46/111/4 45/112/4
f 35/113/2 37/114/2 38/115/2 36/116/2
f 37/117/3 41/118/3 42/119/3 38/120/3
f 41/121/4 39/122/4 40/123/4 42/124/4
f 39/125/5 35/126/5 36/127/5 40/128/5
f 37/129/6 35/130/6 39/131/6 41/132/6
f 42/133/1 40/134/1 36/135/1 38/136/1
f 49/137/2 50/138/2 52/139/2 51/140/2
f 51/141/5 52/142/5 56/143/5 55/144/5
f 55/145/4 56/146/4 54/147/4 53/148/4
f 53/149/3 54/150/3 50/151/3 49/152/3
f 51/153/6 55/154/6 53/155/6 49/156/6
f 56/157/1 52/158/1 50/159/1 54/160/1
f 43/161/5 44/162/5 16/163/5 15/164/5
